<?xml version="1.0" encoding="UTF-8"?>
<svg width="1024" height="1024" viewBox="0 0 1024 1024" xmlns="http://www.w3.org/2000/svg">
  <path id="11" d="M 0,1024 C 0,682.667 0,341.333 0,0 C 341.333,0 682.667,0 1024,0 C 1024,341.333 1024,682.667 1024,1024 C 682.667,1024 341.333,1024 0,1024 ZM 875.955,491.500 C 872.465,425.217 849.036,357.562 810.504,302.500 C 778.797,257.192 734.779,218 685.400,191.113 C 572.731,129.764 434.172,133.090 323.500,199.802 C 298.167,215.073 276.948,231.894 253.965,254.927 C 222.987,285.971 204,312.541 184.507,352.124 C 167.803,386.044 156.883,421.715 150.869,462 C 148.285,479.310 147.212,522.092 148.895,540.689 C 156.201,621.419 189.233,694.900 245.492,755.568 C 267.609,779.419 307.754,812 315.024,812 C 319.561,812 323,808.500 323,803.882 C 323,799.119 321.908,797.948 309.313,789.217 C 280.722,769.397 248.369,736.672 226.431,705.385 C 192.694,657.269 171.694,600.716 165.970,542.561 C 164.552,528.150 164.574,493.453 166.010,479 C 172.412,414.586 196.016,353.495 233.761,303.655 C 256.263,273.942 283.991,247.091 313.242,226.690 C 330.344,214.762 340.309,208.923 360.500,199.001 C 395.350,181.875 430.032,171.673 471.500,166.351 C 490.979,163.851 535.037,163.869 553.500,166.385 C 624.235,176.023 682.601,201.428 735.267,245.504 C 775.065,278.811 808.057,322.392 829.111,369.468 C 862.767,444.722 868.585,529.192 845.484,607.189 C 833.779,646.707 810.438,690.842 783.441,724.500 C 765.326,747.084 736.215,774.538 713.792,790.184 C 708.813,793.658 703.899,797.373 702.870,798.439 C 698.487,802.982 702.404,812 708.759,812 C 716.109,812 750.291,784.915 774.351,760.027 C 835.783,696.480 871.117,615.970 875.964,528.500 C 876.513,518.600 876.901,509.375 876.827,508 C 876.753,506.625 876.360,499.200 875.955,491.500 ZM 771.291,497.500 C 768.387,444.817 747.029,389.772 713.442,348.404 C 703.143,335.720 681.507,314.996 667.926,304.810 C 631.304,277.341 588.734,260.108 543.500,254.440 C 528.046,252.504 498.936,252.253 484,253.927 C 426.269,260.399 373.846,285.288 331.178,326.483 C 244.605,410.067 227.568,543.092 290.159,646.768 C 297.087,658.243 310.948,676.543 320.141,686.353 C 326.786,693.443 327.876,694.214 331.378,694.304 C 334.441,694.382 335.754,693.824 337.628,691.646 C 341.817,686.776 340.833,683.862 331.670,674.019 C 317.533,658.832 299.403,631.072 290.513,611 C 283.993,596.278 277.775,577.999 279.288,578.002 C 279.954,578.003 285,583.235 290.500,589.628 C 313.204,616.018 345.470,642.365 376.228,659.628 C 395.145,670.246 426.042,682.709 430.607,681.563 C 436.350,680.122 438.940,672.599 435.250,668.077 C 434.259,666.863 428.945,664.275 423,662.111 C 385.492,648.461 351.734,627.157 322.063,598.410 C 302.518,579.474 285.811,559.122 275.155,541.271 C 270.261,533.072 270.240,533 269.550,521.771 C 269.162,515.451 269.349,503.981 269.977,495.657 C 271.120,480.509 274.461,459.152 275.917,457.687 C 276.361,457.240 280.609,462.450 285.356,469.264 C 297.733,487.033 308.191,499.343 325.927,517.019 C 357.338,548.323 390.121,571.013 428.649,588.114 C 452.640,598.763 483.475,607.792 507,611.055 C 511.675,611.703 515.829,612.533 516.230,612.897 C 518.136,614.627 511.874,645.300 505.923,663.382 C 502.410,674.058 502.360,675.161 505.250,678.445 C 508.433,682.062 512.840,682.700 516.230,680.034 C 520.334,676.806 527.182,654.835 530.945,632.823 C 537.103,596.802 535.139,559.181 525.384,526.281 C 524.176,522.208 522.969,518.136 521.761,514.063 C 524.496,511.136 527.230,508.208 529.965,505.281 C 542.681,491.671 559.779,477.179 573.220,468.620 C 575.127,467.406 577.032,466.191 578.939,464.977 C 579.432,465.731 579.925,466.485 580.418,467.239 C 582.731,470.776 590.469,488.656 593.932,498.467 C 612.306,550.524 614.073,606.682 599.023,660.260 C 595.482,672.865 595.290,676.290 597.975,678.975 C 602.203,683.203 608.740,682.337 611.398,677.197 C 615.610,669.052 623.178,632.438 625.080,611 C 626.545,594.492 625.739,562.762 623.479,548 C 619.415,521.452 610.864,492.505 600.189,469.164 C 598.156,464.719 596.123,460.273 594.090,455.828 C 597.658,454.149 601.227,452.471 604.795,450.792 C 625.909,440.860 659.840,429.792 662.474,431.978 C 664.517,433.673 678.622,462.064 683.352,474 C 694.878,503.088 702.007,540.580 701.986,572 C 701.963,607.635 695.006,641.687 680.225,678.510 C 674.766,692.109 674.476,695.566 678.455,699.545 C 680.167,701.257 682.016,702 684.569,702 C 687.779,702 689.213,701.048 696.232,694.250 C 714.358,676.696 732.866,651.014 744.748,626.926 C 760.233,595.533 768.353,565.363 770.970,529.500 C 771.953,516.034 772.008,510.509 771.291,497.500 ZM 448.545,814.455 C 447.727,813.637 446.909,812.818 446.091,812 C 435.429,812 424.766,812 414.104,812 C 395.738,812 381.876,811.609 381.550,811.081 C 381.033,810.244 388.033,801.145 433.246,743.896 C 441.327,733.664 448.391,724.102 448.944,722.647 C 450.254,719.203 449.285,714.567 446.781,712.301 C 444.933,710.629 441.897,710.500 404.309,710.500 C 390.815,710.500 377.321,710.500 363.827,710.500 C 363.022,711.435 362.219,712.371 361.414,713.306 C 360.086,714.849 359,716.966 359,718.009 C 359,720.769 361.020,724.765 362.885,725.695 C 363.773,726.138 378.174,726.725 394.888,727 C 405.017,727.167 415.148,727.333 425.277,727.500 C 421.330,732.500 417.382,737.500 413.435,742.500 C 354.070,817.701 357,813.728 357,819.010 C 357,823.052 357.436,824.198 359.635,825.927 C 362.205,827.949 363.294,828 404.180,828 C 418.150,828 432.121,828 446.091,828 C 446.909,827.182 447.727,826.363 448.545,825.545 C 450.092,823.998 451,821.948 451,820 C 451,818.052 450.092,816.002 448.545,814.455 ZM 558.845,714.500 C 556.017,709.329 549.566,708.344 545.455,712.455 C 544.637,713.273 543.818,714.091 543,714.909 C 543,722.257 543,729.607 543,736.955 C 543,744.304 543,751.651 543,759 C 533.351,759 523.703,759 514.054,759 C 504.405,759 494.757,759 485.108,759 C 485.007,751.637 484.905,744.275 484.804,736.912 C 484.703,729.549 484.601,722.186 484.500,714.823 C 483.565,714.019 482.629,713.216 481.694,712.412 C 478.027,709.260 473.633,709.277 470.455,712.455 C 469.637,713.273 468.818,714.091 468,714.909 C 468,733.033 468,751.156 468,769.280 C 468,787.404 468,805.527 468,823.651 C 468.771,824.376 469.543,825.101 470.314,825.826 C 473.452,828.774 479.954,828.812 482.595,825.897 C 484.336,823.975 484.527,821.738 484.815,799.897 C 484.920,791.931 485.026,783.966 485.131,776 C 494.776,776 504.420,776 514.065,776 C 523.710,776 533.355,776 543,776 C 543,783.788 543,791.577 543,799.365 C 543,821.489 543.111,822.870 545.073,825.365 C 546.745,827.491 547.986,828 551.500,828 C 555.014,828 556.255,827.491 557.927,825.365 C 559.966,822.773 560,821.859 559.970,769.615 C 559.949,733.105 559.597,715.875 558.845,714.500 ZM 666.590,787.854 C 664.470,777.768 657.855,770.673 646.340,766.134 C 643.652,765.074 635.257,762.815 627.684,761.113 C 611.759,757.534 605.380,755.050 601.368,750.862 C 598.899,748.284 598.500,747.079 598.500,742.184 C 598.500,731.351 605.368,725.953 620.098,725.206 C 630.947,724.656 637.253,726.391 646.513,732.473 C 654.360,737.627 657.064,738.026 660.545,734.545 C 664.380,730.709 663.932,725.615 659.380,721.322 C 654.579,716.794 645.562,712.338 637.250,710.386 C 627.893,708.189 611.587,708.927 603.855,711.897 C 588.296,717.874 580.099,730.201 581.228,745.925 C 581.800,753.889 584.379,759.303 590.038,764.415 C 597.005,770.709 602.061,772.614 627.469,778.518 C 644.509,782.477 650,786.921 650,796.753 C 650,804.231 643.985,810.326 634.374,812.587 C 620.221,815.917 606.102,812.544 594.026,802.949 C 590.065,799.802 587.641,798.600 585.254,798.600 C 580.532,798.600 577.545,801.909 577.545,807.140 C 577.545,810.732 578.092,811.753 581.746,814.996 C 601.585,832.602 638.672,834.768 656.950,819.388 C 665.320,812.345 669.123,799.906 666.590,787.854 Z" fill="#FFFFFF" stroke="none" />
  <path id="10" d="M 771.291,497.500 C 772.008,510.509 771.953,516.034 770.970,529.500 C 768.353,565.363 760.233,595.533 744.748,626.926 C 732.866,651.014 714.358,676.696 696.232,694.250 C 689.213,701.048 687.779,702 684.569,702 C 682.016,702 680.167,701.257 678.455,699.545 C 674.476,695.566 674.766,692.109 680.225,678.510 C 695.006,641.687 701.963,607.635 701.986,572 C 702.007,540.580 694.878,503.088 683.352,474 C 678.622,462.064 664.517,433.673 662.474,431.978 C 659.840,429.792 625.909,440.860 604.795,450.792 C 601.227,452.471 597.658,454.149 594.090,455.828 C 596.123,460.273 598.156,464.719 600.189,469.164 C 610.864,492.505 619.415,521.452 623.479,548 C 625.739,562.762 626.545,594.492 625.080,611 C 623.178,632.438 615.610,669.052 611.398,677.197 C 608.740,682.337 602.203,683.203 597.975,678.975 C 595.290,676.290 595.482,672.865 599.023,660.260 C 614.073,606.682 612.306,550.524 593.932,498.467 C 590.469,488.656 582.731,470.776 580.418,467.239 C 579.925,466.485 579.432,465.731 578.939,464.977 C 577.032,466.191 575.127,467.406 573.220,468.620 C 559.779,477.179 542.681,491.671 529.965,505.281 C 527.230,508.208 524.496,511.136 521.761,514.063 C 522.969,518.136 524.176,522.208 525.384,526.281 C 535.139,559.181 537.103,596.802 530.945,632.823 C 527.182,654.835 520.334,676.806 516.230,680.034 C 512.840,682.700 508.433,682.062 505.250,678.445 C 502.360,675.161 502.410,674.058 505.923,663.382 C 511.874,645.300 518.136,614.627 516.230,612.897 C 515.829,612.533 511.675,611.703 507,611.055 C 483.475,607.792 452.640,598.763 428.649,588.114 C 390.121,571.013 357.338,548.323 325.927,517.019 C 308.191,499.343 297.733,487.033 285.356,469.264 C 280.609,462.450 276.361,457.240 275.917,457.687 C 274.461,459.152 271.120,480.509 269.977,495.657 C 269.349,503.981 269.162,515.451 269.550,521.771 C 270.240,533 270.261,533.072 275.155,541.271 C 285.811,559.122 302.518,579.474 322.063,598.410 C 351.734,627.157 385.492,648.461 423,662.111 C 428.945,664.275 434.259,666.863 435.250,668.077 C 438.940,672.599 436.350,680.122 430.607,681.563 C 426.042,682.709 395.145,670.246 376.228,659.628 C 345.470,642.365 313.204,616.018 290.500,589.628 C 285,583.235 279.954,578.003 279.288,578.002 C 277.775,577.999 283.993,596.278 290.513,611 C 299.403,631.072 317.533,658.832 331.670,674.019 C 340.833,683.862 341.817,686.776 337.628,691.646 C 335.754,693.824 334.441,694.382 331.378,694.304 C 327.876,694.214 326.786,693.443 320.141,686.353 C 310.948,676.543 297.087,658.243 290.159,646.768 C 227.568,543.092 244.605,410.067 331.178,326.483 C 373.846,285.288 426.269,260.399 484,253.927 C 498.936,252.253 528.046,252.504 543.500,254.440 C 588.734,260.108 631.304,277.341 667.926,304.810 C 681.507,314.996 703.143,335.720 713.442,348.404 C 747.029,389.772 768.387,444.817 771.291,497.500 ZM 286.498,422.754 C 284.615,427.564 283.057,432.047 283.037,432.715 C 282.944,435.779 300.303,462.186 312.806,478 C 323.296,491.268 353.257,520.808 367,531.431 C 408.603,563.591 453.623,583.985 503.860,593.428 C 508.458,594.292 513.588,595 515.260,595 C 516.273,595 517.287,595 518.300,595 C 518.070,590.917 517.839,586.833 517.609,582.750 C 516.674,566.169 514.476,551.106 510.957,537.143 C 506.686,520.199 506.870,520.507 500.189,519.054 C 455.666,509.373 411.888,484.259 376.981,448.371 C 354.279,425.031 336.438,398.293 324.519,369.750 C 322.969,366.038 321.388,363 321.006,363 C 320.133,363 308.510,379.513 303.762,387.500 C 298.328,396.641 290.315,413.005 286.498,422.754 ZM 343.327,338.290 C 340.269,341.296 337.212,344.301 334.154,347.307 C 334.990,349.672 335.827,352.039 336.663,354.404 C 341.331,367.604 354.351,393.273 359.780,399.977 C 360.423,400.771 361.065,401.564 361.708,402.358 C 363.713,399.382 365.719,396.405 367.724,393.429 C 379.248,376.324 388.409,365.390 405.399,348.462 C 440.167,313.823 476.701,290.850 521.500,275.456 C 527.550,273.377 532.858,271.369 533.295,270.993 C 534.786,269.712 509.811,269.084 496.136,270.059 C 452.864,273.144 414.871,285.965 378.492,309.758 C 364.557,318.872 356.096,325.738 343.327,338.290 ZM 379.661,405.889 C 377.125,409.685 374.588,413.482 372.052,417.278 C 373.103,418.648 374.153,420.019 375.204,421.389 C 380.924,428.849 406.346,453.477 414.983,459.925 C 417.811,462.036 420.638,464.147 423.465,466.258 C 424.138,465.319 424.811,464.381 425.483,463.442 C 471.703,398.924 531.620,355.645 603.253,335.038 C 618.791,330.568 630.477,328.186 647.713,325.973 C 656.325,324.867 663.524,323.809 663.711,323.622 C 664.358,322.975 655.450,316.248 644,308.736 C 626.639,297.346 603.330,286.155 586.163,280.969 C 577.862,278.461 576.169,278.558 558.258,282.575 C 498.505,295.976 446.372,326.728 404.986,372.984 C 394.430,384.782 389.367,391.361 379.661,405.889 ZM 445.096,465.014 C 441.189,470.217 438.136,474.930 438.313,475.487 C 438.490,476.044 445.804,480.111 454.567,484.525 C 470.991,492.798 486.407,498.490 500.691,501.557 C 503.421,502.143 506.152,502.729 508.882,503.315 C 512.968,499.063 517.055,494.810 521.141,490.558 C 551.217,459.257 588.434,436.030 631,421.996 C 658.053,413.077 680.942,409.144 710.750,408.292 C 721.888,407.974 731,407.494 731,407.226 C 731,405.749 717.839,383.129 712.250,375 C 705.575,365.291 694.818,351.984 687.288,344.120 C 685.884,342.654 684.480,341.188 683.076,339.722 C 679.480,339.954 675.884,340.187 672.288,340.419 C 598.444,345.190 531.518,375.185 478.148,427.429 C 463.994,441.284 456.609,449.683 445.096,465.014 ZM 680.816,427.620 C 680.440,427.849 682.993,433.541 686.490,440.268 C 719.310,503.398 727.224,575.632 709.022,645.962 C 707.960,650.066 707.315,653.649 707.589,653.923 C 709.079,655.413 725.190,629.299 732.532,613.493 C 755.454,564.146 760.890,505.402 747.369,453.133 C 744.778,443.116 740.348,429.181 739.127,427.205 C 737.933,425.272 710.749,424.503 695,425.957 C 687.575,426.642 681.192,427.391 680.816,427.620 Z" fill="#2B72A5" stroke="none" />
  <path id="11" d="M 379.661,405.889 C 389.367,391.361 394.430,384.782 404.986,372.984 C 446.372,326.728 498.505,295.976 558.258,282.575 C 576.169,278.558 577.862,278.461 586.163,280.969 C 603.330,286.155 626.639,297.346 644,308.736 C 655.450,316.248 664.358,322.975 663.711,323.622 C 663.524,323.809 656.325,324.867 647.713,325.973 C 630.477,328.186 618.791,330.568 603.253,335.038 C 531.620,355.645 471.703,398.924 425.483,463.442 C 424.811,464.381 424.138,465.319 423.465,466.258 C 420.638,464.147 417.811,462.036 414.983,459.925 C 406.346,453.477 380.924,428.849 375.204,421.389 C 374.153,420.019 373.103,418.648 372.052,417.278 C 374.588,413.482 377.125,409.685 379.661,405.889 Z" fill="#FFFFFF" stroke="none" />
  <path id="11" d="M 286.498,422.754 C 290.315,413.005 298.328,396.641 303.762,387.500 C 308.510,379.513 320.133,363 321.006,363 C 321.388,363 322.969,366.038 324.519,369.750 C 336.438,398.293 354.279,425.031 376.981,448.371 C 411.888,484.259 455.666,509.373 500.189,519.054 C 506.870,520.507 506.686,520.199 510.957,537.143 C 514.476,551.106 516.674,566.169 517.609,582.750 C 517.839,586.833 518.070,590.917 518.300,595 C 517.287,595 516.273,595 515.260,595 C 513.588,595 508.458,594.292 503.860,593.428 C 453.623,583.985 408.603,563.591 367,531.431 C 353.257,520.808 323.296,491.268 312.806,478 C 300.303,462.186 282.944,435.779 283.037,432.715 C 283.057,432.047 284.615,427.564 286.498,422.754 Z" fill="#FFFFFF" stroke="none" />
  <path id="10" d="M 875.955,491.500 C 876.360,499.200 876.753,506.625 876.827,508 C 876.901,509.375 876.513,518.600 875.964,528.500 C 871.117,615.970 835.783,696.480 774.351,760.027 C 750.291,784.915 716.109,812 708.759,812 C 702.404,812 698.487,802.982 702.870,798.439 C 703.899,797.373 708.813,793.658 713.792,790.184 C 736.215,774.538 765.326,747.084 783.441,724.500 C 810.438,690.842 833.779,646.707 845.484,607.189 C 868.585,529.192 862.767,444.722 829.111,369.468 C 808.057,322.392 775.065,278.811 735.267,245.504 C 682.601,201.428 624.235,176.023 553.500,166.385 C 535.037,163.869 490.979,163.851 471.500,166.351 C 430.032,171.673 395.350,181.875 360.500,199.001 C 340.309,208.923 330.344,214.762 313.242,226.690 C 283.991,247.091 256.263,273.942 233.761,303.655 C 196.016,353.495 172.412,414.586 166.010,479 C 164.574,493.453 164.552,528.150 165.970,542.561 C 171.694,600.716 192.694,657.269 226.431,705.385 C 248.369,736.672 280.722,769.397 309.313,789.217 C 321.908,797.948 323,799.119 323,803.882 C 323,808.500 319.561,812 315.024,812 C 307.754,812 267.609,779.419 245.492,755.568 C 189.233,694.900 156.201,621.419 148.895,540.689 C 147.212,522.092 148.285,479.310 150.869,462 C 156.883,421.715 167.803,386.044 184.507,352.124 C 204,312.541 222.987,285.971 253.965,254.927 C 276.948,231.894 298.167,215.073 323.500,199.802 C 434.172,133.090 572.731,129.764 685.400,191.113 C 734.779,218 778.797,257.192 810.504,302.500 C 849.036,357.562 872.465,425.217 875.955,491.500 Z" fill="#2B72A5" stroke="none" />
  <path id="11" d="M 445.096,465.014 C 456.609,449.683 463.994,441.284 478.148,427.429 C 531.518,375.185 598.444,345.190 672.288,340.419 C 675.884,340.187 679.480,339.954 683.076,339.722 C 684.480,341.188 685.884,342.654 687.288,344.120 C 694.818,351.984 705.575,365.291 712.250,375 C 717.839,383.129 731,405.749 731,407.226 C 731,407.494 721.888,407.974 710.750,408.292 C 680.942,409.144 658.053,413.077 631,421.996 C 588.434,436.030 551.217,459.257 521.141,490.558 C 517.055,494.810 512.968,499.063 508.882,503.315 C 506.152,502.729 503.421,502.143 500.691,501.557 C 486.407,498.490 470.991,492.798 454.567,484.525 C 445.804,480.111 438.490,476.044 438.313,475.487 C 438.136,474.930 441.189,470.217 445.096,465.014 Z" fill="#FFFFFF" stroke="none" />
  <path id="11" d="M 680.816,427.620 C 681.192,427.391 687.575,426.642 695,425.957 C 710.749,424.503 737.933,425.272 739.127,427.205 C 740.348,429.181 744.778,443.116 747.369,453.133 C 760.890,505.402 755.454,564.146 732.532,613.493 C 725.190,629.299 709.079,655.413 707.589,653.923 C 707.315,653.649 707.960,650.066 709.022,645.962 C 727.224,575.632 719.310,503.398 686.490,440.268 C 682.993,433.541 680.440,427.849 680.816,427.620 Z" fill="#FFFFFF" stroke="none" />
  <path id="11" d="M 343.327,338.290 C 356.096,325.738 364.557,318.872 378.492,309.758 C 414.871,285.965 452.864,273.144 496.136,270.059 C 509.811,269.084 534.786,269.712 533.295,270.993 C 532.858,271.369 527.550,273.377 521.500,275.456 C 476.701,290.850 440.167,313.823 405.399,348.462 C 388.409,365.390 379.248,376.324 367.724,393.429 C 365.719,396.405 363.713,399.382 361.708,402.358 C 361.065,401.564 360.423,400.771 359.780,399.977 C 354.351,393.273 341.331,367.604 336.663,354.404 C 335.827,352.039 334.990,349.672 334.154,347.307 C 337.212,344.301 340.269,341.296 343.327,338.290 Z" fill="#FFFFFF" stroke="none" />
  <path id="10" d="M 558.845,714.500 C 559.597,715.875 559.949,733.105 559.970,769.615 C 560,821.859 559.966,822.773 557.927,825.365 C 556.255,827.491 555.014,828 551.500,828 C 547.986,828 546.745,827.491 545.073,825.365 C 543.111,822.870 543,821.489 543,799.365 C 543,791.577 543,783.788 543,776 C 533.355,776 523.710,776 514.065,776 C 504.420,776 494.776,776 485.131,776 C 485.026,783.966 484.920,791.931 484.815,799.897 C 484.527,821.738 484.336,823.975 482.595,825.897 C 479.954,828.812 473.452,828.774 470.314,825.826 C 469.543,825.101 468.771,824.376 468,823.651 C 468,805.527 468,787.404 468,769.280 C 468,751.156 468,733.033 468,714.909 C 468.818,714.091 469.637,713.273 470.455,712.455 C 473.633,709.277 478.027,709.260 481.694,712.412 C 482.629,713.216 483.565,714.019 484.500,714.823 C 484.601,722.186 484.703,729.549 484.804,736.912 C 484.905,744.275 485.007,751.637 485.108,759 C 494.757,759 504.405,759 514.054,759 C 523.703,759 533.351,759 543,759 C 543,751.651 543,744.304 543,736.955 C 543,729.607 543,722.257 543,714.909 C 543.818,714.091 544.637,713.273 545.455,712.455 C 549.566,708.344 556.017,709.329 558.845,714.500 Z" fill="#2B72A5" stroke="none" />
  <path id="10" d="M 448.545,814.455 C 450.092,816.002 451,818.052 451,820 C 451,821.948 450.092,823.998 448.545,825.545 C 447.727,826.363 446.909,827.182 446.091,828 C 432.121,828 418.150,828 404.180,828 C 363.294,828 362.205,827.949 359.635,825.927 C 357.436,824.198 357,823.052 357,819.010 C 357,813.728 354.070,817.701 413.435,742.500 C 417.382,737.500 421.330,732.500 425.277,727.500 C 415.148,727.333 405.017,727.167 394.888,727 C 378.174,726.725 363.773,726.138 362.885,725.695 C 361.020,724.765 359,720.769 359,718.009 C 359,716.966 360.086,714.849 361.414,713.306 C 362.219,712.371 363.022,711.435 363.827,710.500 C 377.321,710.500 390.815,710.500 404.309,710.500 C 441.897,710.500 444.933,710.629 446.781,712.301 C 449.285,714.567 450.254,719.203 448.944,722.647 C 448.391,724.102 441.327,733.664 433.246,743.896 C 388.033,801.145 381.033,810.244 381.550,811.081 C 381.876,811.609 395.738,812 414.104,812 C 424.766,812 435.429,812 446.091,812 C 446.909,812.818 447.727,813.637 448.545,814.455 Z" fill="#2B72A5" stroke="none" />
  <path id="10" d="M 666.590,787.854 C 669.123,799.906 665.320,812.345 656.950,819.388 C 638.672,834.768 601.585,832.602 581.746,814.996 C 578.092,811.753 577.545,810.732 577.545,807.140 C 577.545,801.909 580.532,798.600 585.254,798.600 C 587.641,798.600 590.065,799.802 594.026,802.949 C 606.102,812.544 620.221,815.917 634.374,812.587 C 643.985,810.326 650,804.231 650,796.753 C 650,786.921 644.509,782.477 627.469,778.518 C 602.061,772.614 597.005,770.709 590.038,764.415 C 584.379,759.303 581.800,753.889 581.228,745.925 C 580.099,730.201 588.296,717.874 603.855,711.897 C 611.587,708.927 627.893,708.189 637.250,710.386 C 645.562,712.338 654.579,716.794 659.380,721.322 C 663.932,725.615 664.380,730.709 660.545,734.545 C 657.064,738.026 654.360,737.627 646.513,732.473 C 637.253,726.391 630.947,724.656 620.098,725.206 C 605.368,725.953 598.500,731.351 598.500,742.184 C 598.500,747.079 598.899,748.284 601.368,750.862 C 605.380,755.050 611.759,757.534 627.684,761.113 C 635.257,762.815 643.652,765.074 646.340,766.134 C 657.855,770.673 664.470,777.768 666.590,787.854 Z" fill="#2B72A5" stroke="none" />
</svg>
